ffmpeg started on 2016-12-02 at 17:03:36
Report written to "Output/x264/results/ffmpeg/old_town_cross_2160p50veryslow5000k.log"
Command line:
Tools/ffmpeg/ffmpeg -benchmark -y -i Input/y4m/old_town_cross_2160p50.y4m -c:v libx264 -preset veryslow -b:v 5000k -an Output/x264/encoded/old_town_cross_2160p50veryslow5000k.mkv
ffmpeg version N-82227-gdb23fde Copyright (c) 2000-2016 the FFmpeg developers
  built with gcc 5.4.0 (Ubuntu 5.4.0-6ubuntu1~16.04.2) 20160609
  configuration: --prefix=/home/jaroslav/ffmpeg_build --pkg-config-flags=--static --extra-cflags=-I/home/jaroslav/ffmpeg_build/include --extra-ldflags=-L/home/jaroslav/ffmpeg_build/lib --bindir=/home/jaroslav/bin --enable-gpl --enable-libass --enable-libfdk-aac --enable-libfreetype --enable-libmp3lame --enable-libopus --enable-libtheora --enable-libvorbis --enable-libvpx --enable-libx264 --enable-libx265 --enable-nvenc --enable-libmfx --enable-libxvid --enable-libgsm --enable-libopencore-amrnb --enable-version3 --enable-nonfree
  libavutil      55. 35.100 / 55. 35.100
  libavcodec     57. 66.101 / 57. 66.101
  libavformat    57. 57.100 / 57. 57.100
  libavdevice    57.  2.100 / 57.  2.100
  libavfilter     6. 66.100 /  6. 66.100
  libswscale      4.  3.100 /  4.  3.100
  libswresample   2.  4.100 /  2.  4.100
  libpostproc    54.  2.100 / 54.  2.100
Input #0, yuv4mpegpipe, from 'Input/y4m/old_town_cross_2160p50.y4m':
  Duration: 00:00:10.00, start: 0.000000, bitrate: 4976642 kb/s
    Stream #0:0: Video: rawvideo (I420 / 0x30323449), yuv420p(progressive), 3840x2160, SAR 1:1 DAR 16:9, 50 fps, 50 tbr, 50 tbn, 50 tbc
[libx264 @ 0x2c9d120] using SAR=1/1
[libx264 @ 0x2c9d120] DPB size (16 frames, 518400 mbs) > level limit (5 frames, 184320 mbs)
[libx264 @ 0x2c9d120] using cpu capabilities: MMX2 SSE2Fast SSSE3 SSE4.2 AVX FMA3 AVX2 LZCNT BMI2
[libx264 @ 0x2c9d120] profile High, level 5.2
[libx264 @ 0x2c9d120] 264 - core 148 - H.264/MPEG-4 AVC codec - Copyleft 2003-2016 - http://www.videolan.org/x264.html - options: cabac=1 ref=16 deblock=1:0:0 analyse=0x3:0x133 me=umh subme=10 psy=1 psy_rd=1.00:0.00 mixed_ref=1 me_range=24 chroma_me=1 trellis=2 8x8dct=1 cqm=0 deadzone=21,11 fast_pskip=1 chroma_qp_offset=-2 threads=6 lookahead_threads=1 sliced_threads=0 nr=0 decimate=1 interlaced=0 bluray_compat=0 constrained_intra=0 bframes=8 b_pyramid=2 b_adapt=2 b_bias=0 direct=3 weightb=1 open_gop=0 weightp=2 keyint=250 keyint_min=25 scenecut=40 intra_refresh=0 rc_lookahead=60 rc=abr mbtree=1 bitrate=5000 ratetol=1.0 qcomp=0.60 qpmin=0 qpmax=69 qpstep=4 ip_ratio=1.40 aq=1:1.00
Output #0, matroska, to 'Output/x264/encoded/old_town_cross_2160p50veryslow5000k.mkv':
  Metadata:
    encoder         : Lavf57.57.100
    Stream #0:0: Video: h264 (libx264) (H264 / 0x34363248), yuv420p, 3840x2160 [SAR 1:1 DAR 16:9], q=-1--1, 5000 kb/s, 50 fps, 1k tbn, 50 tbc
    Metadata:
      encoder         : Lavc57.66.101 libx264
    Side data:
      cpb: bitrate max/min/avg: 0/0/5000000 buffer size: 0 vbv_delay: -1
Stream mapping:
  Stream #0:0 -> #0:0 (rawvideo (native) -> h264 (libx264))
Press [q] to stop, [?] for help
frame=   60 fps=0.0 q=0.0 size=       0kB time=00:00:00.00 bitrate=N/A speed=   0x    frame=   72 fps=8.0 q=0.0 size=       0kB time=00:00:00.00 bitrate=N/A speed=   0x    frame=   77 fps=7.7 q=40.0 size=       1kB time=-00:00:00.01 bitrate=N/A speed=N/A    frame=   82 fps=6.9 q=43.0 size=       1kB time=00:00:00.08 bitrate=  72.7kbits/s speed=0.00677x    frame=   88 fps=6.8 q=46.0 size=       1kB time=00:00:00.20 bitrate=  29.3kbits/s speed=0.0156x    frame=   91 fps=6.1 q=46.0 size=       1kB time=00:00:00.26 bitrate=  22.6kbits/s speed=0.0176x    frame=   97 fps=6.1 q=44.0 size=       1kB time=00:00:00.38 bitrate=  15.5kbits/s speed=0.0238x    frame=  100 fps=5.6 q=42.0 size=       1kB time=00:00:00.44 bitrate=  13.4kbits/s speed=0.0249x    frame=  105 fps=5.6 q=41.0 size=       1kB time=00:00:00.54 bitrate=  10.9kbits/s speed=0.0286x    frame=  107 fps=5.5 q=39.0 size=       1kB time=00:00:00.58 bitrate=  10.1kbits/s speed=0.0296x    frame=  108 fps=5.3 q=40.0 size=       1kB time=00:00:00.60 bitrate=   9.8kbits/s speed=0.0295x    frame=  113 fps=5.3 q=40.0 size=       1kB time=00:00:00.70 bitrate=   8.4kbits/s speed=0.0326x    frame=  114 fps=5.1 q=40.0 size=       1kB time=00:00:00.72 bitrate=   8.2kbits/s speed=0.0321x    frame=  117 fps=5.0 q=39.0 size=       1kB time=00:00:00.78 bitrate=   7.5kbits/s speed=0.0334x    frame=  120 fps=5.0 q=39.0 size=       1kB time=00:00:00.84 bitrate=   7.0kbits/s speed=0.0349x    frame=  122 fps=4.9 q=39.0 size=       1kB time=00:00:00.88 bitrate=   6.7kbits/s speed=0.0356x    frame=  123 fps=4.7 q=39.0 size=       1kB time=00:00:00.90 bitrate=   6.5kbits/s speed=0.0344x    frame=  127 fps=4.7 q=39.0 size=       1kB time=00:00:00.98 bitrate=   6.0kbits/s speed=0.0366x    frame=  129 fps=4.5 q=38.0 size=       1kB time=00:00:01.02 bitrate=   5.8kbits/s speed=0.0355x    frame=  132 fps=4.5 q=38.0 size=       1kB time=00:00:01.08 bitrate=   5.4kbits/s speed=0.0365x    frame=  133 fps=4.4 q=38.0 size=       1kB time=00:00:01.10 bitrate=   5.3kbits/s speed=0.0363x    frame=  135 fps=4.3 q=38.0 size=       1kB time=00:00:01.14 bitrate=   5.2kbits/s speed=0.0365x    frame=  138 fps=4.3 q=38.0 size=       1kB time=00:00:01.20 bitrate=   4.9kbits/s speed=0.0377x    frame=  139 fps=4.2 q=38.0 size=       1kB time=00:00:01.22 bitrate=   4.8kbits/s speed=0.0366x    frame=  141 fps=4.1 q=38.0 size=       1kB time=00:00:01.26 bitrate=   4.7kbits/s speed=0.0371x    frame=  144 fps=4.2 q=38.0 size=       1kB time=00:00:01.32 bitrate=   4.5kbits/s speed=0.0382x    frame=  145 fps=4.0 q=38.0 size=       1kB time=00:00:01.34 bitrate=   4.4kbits/s speed=0.0369x    frame=  147 fps=4.0 q=38.0 size=       1kB time=00:00:01.38 bitrate=   4.3kbits/s speed=0.0374x    frame=  149 fps=3.9 q=38.0 size=       1kB time=00:00:01.42 bitrate=   4.1kbits/s speed=0.0375x    frame=  151 fps=3.9 q=37.0 size=       1kB time=00:00:01.46 bitrate=   4.0kbits/s speed=0.0379x    frame=  154 fps=3.9 q=37.0 size=       1kB time=00:00:01.52 bitrate=   3.9kbits/s speed=0.0387x    frame=  155 fps=3.8 q=37.0 size=       1kB time=00:00:01.54 bitrate=   3.8kbits/s speed=0.038x    frame=  157 fps=3.8 q=37.0 size=       1kB time=00:00:01.58 bitrate=   3.7kbits/s speed=0.0381x    frame=  159 fps=3.8 q=37.0 size=       1kB time=00:00:01.62 bitrate=   3.6kbits/s speed=0.0386x    frame=  161 fps=3.7 q=37.0 size=       1kB time=00:00:01.66 bitrate=   3.5kbits/s speed=0.0384x    frame=  163 fps=3.7 q=37.0 size=       1kB time=00:00:01.70 bitrate=   3.5kbits/s speed=0.0386x    frame=  165 fps=3.7 q=37.0 size=       1kB time=00:00:01.74 bitrate=   3.4kbits/s speed=0.0387x    frame=  167 fps=3.6 q=37.0 size=       1kB time=00:00:01.78 bitrate=   3.3kbits/s speed=0.0384x    frame=  171 fps=3.6 q=37.0 size=       1kB time=00:00:01.86 bitrate=   3.2kbits/s speed=0.0395x    frame=  173 fps=3.6 q=37.0 size=       1kB time=00:00:01.90 bitrate=   3.1kbits/s speed=0.0394x    frame=  174 fps=3.5 q=37.0 size=       1kB time=00:00:01.92 bitrate=   3.1kbits/s speed=0.0389x    frame=  176 fps=3.5 q=37.0 size=       1kB time=00:00:01.96 bitrate=   3.0kbits/s speed=0.039x    frame=  179 fps=3.5 q=37.0 size=       1kB time=00:00:02.02 bitrate=   2.9kbits/s speed=0.0394x    frame=  180 fps=3.5 q=37.0 size=       1kB time=00:00:02.04 bitrate=   2.9kbits/s speed=0.0393x    frame=  182 fps=3.4 q=37.0 size=       1kB time=00:00:02.08 bitrate=   2.8kbits/s speed=0.0392x    frame=  183 fps=3.4 q=37.0 size=       1kB time=00:00:02.10 bitrate=   2.8kbits/s speed=0.0391x    frame=  185 fps=3.4 q=37.0 size=       1kB time=00:00:02.14 bitrate=   2.8kbits/s speed=0.0392x    frame=  188 fps=3.4 q=37.0 size=       1kB time=00:00:02.20 bitrate=   2.7kbits/s speed=0.0398x    frame=  189 fps=3.4 q=37.0 size=       1kB time=00:00:02.22 bitrate=   2.7kbits/s speed=0.0395x    frame=  191 fps=3.3 q=37.0 size=       1kB time=00:00:02.26 bitrate=   2.6kbits/s speed=0.0393x    frame=  193 fps=3.3 q=37.0 size=       1kB time=00:00:02.30 bitrate=   2.6kbits/s speed=0.0395x    frame=  194 fps=3.3 q=37.0 size=       1kB time=00:00:02.32 bitrate=   2.5kbits/s speed=0.0392x    frame=  196 fps=3.3 q=37.0 size=       1kB time=00:00:02.36 bitrate=   2.5kbits/s speed=0.0395x    frame=  199 fps=3.3 q=37.0 size=       1kB time=00:00:02.42 bitrate=   2.4kbits/s speed=0.0399x    frame=  200 fps=3.2 q=37.0 size=       1kB time=00:00:02.44 bitrate=   2.4kbits/s speed=0.0395x    frame=  202 fps=3.2 q=37.0 size=       1kB time=00:00:02.48 bitrate=   2.4kbits/s speed=0.0398x    frame=  204 fps=3.2 q=37.0 size=       1kB time=00:00:02.52 bitrate=   2.3kbits/s speed=0.0396x    frame=  206 fps=3.2 q=37.0 size=       1kB time=00:00:02.56 bitrate=   2.3kbits/s speed=0.0397x    frame=  209 fps=3.2 q=37.0 size=       1kB time=00:00:02.62 bitrate=   2.2kbits/s speed=0.0401x    frame=  210 fps=3.1 q=37.0 size=       1kB time=00:00:02.64 bitrate=   2.2kbits/s speed=0.0393x    frame=  213 fps=3.1 q=37.0 size=       1kB time=00:00:02.70 bitrate=   2.2kbits/s speed=0.0398x    frame=  216 fps=3.1 q=37.0 size=       1kB time=00:00:02.76 bitrate=   2.1kbits/s speed=0.0395x    frame=  219 fps=3.1 q=37.0 size=       1kB time=00:00:02.82 bitrate=   2.1kbits/s speed=0.0398x    frame=  222 fps=3.1 q=36.0 size=       1kB time=00:00:02.88 bitrate=   2.0kbits/s speed=0.0397x    frame=  225 fps=3.0 q=36.0 size=       1kB time=00:00:02.94 bitrate=   2.0kbits/s speed=0.0397x    frame=  228 fps=3.0 q=36.0 size=       1kB time=00:00:03.00 bitrate=   2.0kbits/s speed=0.0401x    frame=  230 fps=3.0 q=36.0 size=       1kB time=00:00:03.04 bitrate=   1.9kbits/s speed=0.04x    frame=  231 fps=3.0 q=36.0 size=       1kB time=00:00:03.06 bitrate=   1.9kbits/s speed=0.0399x    frame=  234 fps=3.0 q=36.0 size=       1kB time=00:00:03.12 bitrate=   1.9kbits/s speed=0.0404x    frame=  235 fps=3.0 q=36.0 size=       1kB time=00:00:03.14 bitrate=   1.9kbits/s speed=0.0404x    frame=  236 fps=3.0 q=36.0 size=       1kB time=00:00:03.16 bitrate=   1.9kbits/s speed=0.04x    frame=  240 fps=3.0 q=36.0 size=       1kB time=00:00:03.24 bitrate=   1.8kbits/s speed=0.0402x    frame=  242 fps=3.0 q=36.0 size=       1kB time=00:00:03.28 bitrate=   1.8kbits/s speed=0.0403x    frame=  246 fps=3.0 q=36.0 size=       1kB time=00:00:03.36 bitrate=   1.8kbits/s speed=0.0407x    frame=  247 fps=3.0 q=36.0 size=       1kB time=00:00:03.38 bitrate=   1.7kbits/s speed=0.0406x    frame=  248 fps=2.9 q=36.0 size=       1kB time=00:00:03.40 bitrate=   1.7kbits/s speed=0.0404x    frame=  251 fps=3.0 q=36.0 size=       1kB time=00:00:03.46 bitrate=   1.7kbits/s speed=0.0407x    frame=  252 fps=2.9 q=36.0 size=       1kB time=00:00:03.48 bitrate=   1.7kbits/s speed=0.0406x    frame=  254 fps=2.9 q=36.0 size=       1kB time=00:00:03.52 bitrate=   1.7kbits/s speed=0.0407x    frame=  255 fps=2.9 q=36.0 size=       1kB time=00:00:03.54 bitrate=   1.7kbits/s speed=0.0406x    frame=  258 fps=2.9 q=36.0 size=       1kB time=00:00:03.60 bitrate=   1.6kbits/s speed=0.0409x    frame=  259 fps=2.9 q=36.0 size=       1kB time=00:00:03.62 bitrate=   1.6kbits/s speed=0.0408x    frame=  260 fps=2.9 q=36.0 size=       1kB time=00:00:03.64 bitrate=   1.6kbits/s speed=0.0408x    frame=  261 fps=2.9 q=36.0 size=       1kB time=00:00:03.66 bitrate=   1.6kbits/s speed=0.0407x    frame=  264 fps=2.9 q=36.0 size=       1kB time=00:00:03.72 bitrate=   1.6kbits/s speed=0.0411x    frame=  265 fps=2.9 q=36.0 size=       1kB time=00:00:03.74 bitrate=   1.6kbits/s speed=0.0409x    frame=  267 fps=2.9 q=36.0 size=       1kB time=00:00:03.78 bitrate=   1.6kbits/s speed=0.0407x    frame=  269 fps=2.9 q=36.0 size=       1kB time=00:00:03.82 bitrate=   1.5kbits/s speed=0.0409x    frame=  271 fps=2.9 q=36.0 size=       1kB time=00:00:03.86 bitrate=   1.5kbits/s speed=0.0409x    frame=  273 fps=2.8 q=36.0 size=       1kB time=00:00:03.90 bitrate=   1.5kbits/s speed=0.0407x    frame=  277 fps=2.9 q=36.0 size=       1kB time=00:00:03.98 bitrate=   1.5kbits/s speed=0.0411x    frame=  279 fps=2.8 q=36.0 size=       1kB time=00:00:04.02 bitrate=   1.5kbits/s speed=0.0408x    frame=  283 fps=2.9 q=36.0 size=       1kB time=00:00:04.10 bitrate=   1.4kbits/s speed=0.0414x    frame=  285 fps=2.8 q=36.0 size=       1kB time=00:00:04.14 bitrate=   1.4kbits/s speed=0.041x    frame=  286 fps=2.8 q=36.0 size=       1kB time=00:00:04.16 bitrate=   1.4kbits/s speed=0.0409x    frame=  289 fps=2.8 q=36.0 size=       1kB time=00:00:04.22 bitrate=   1.4kbits/s speed=0.0412x    frame=  291 fps=2.8 q=36.0 size=       1kB time=00:00:04.26 bitrate=   1.4kbits/s speed=0.0411x    frame=  292 fps=2.8 q=36.0 size=       1kB time=00:00:04.28 bitrate=   1.4kbits/s speed=0.0409x    frame=  296 fps=2.8 q=36.0 size=       1kB time=00:00:04.36 bitrate=   1.4kbits/s speed=0.0411x    frame=  298 fps=2.8 q=36.0 size=       1kB time=00:00:04.40 bitrate=   1.3kbits/s speed=0.0409x    frame=  302 fps=2.8 q=36.0 size=       1kB time=00:00:04.48 bitrate=   1.3kbits/s speed=0.0413x    frame=  304 fps=2.7 q=36.0 size=       1kB time=00:00:04.52 bitrate=   1.3kbits/s speed=0.0409x    frame=  309 fps=2.8 q=36.0 size=       1kB time=00:00:04.62 bitrate=   1.3kbits/s speed=0.0414x    frame=  310 fps=2.8 q=36.0 size=       1kB time=00:00:04.64 bitrate=   1.3kbits/s speed=0.0413x    frame=  311 fps=2.7 q=36.0 size=       1kB time=00:00:04.66 bitrate=   1.3kbits/s speed=0.041x    frame=  313 fps=2.7 q=36.0 size=       1kB time=00:00:04.70 bitrate=   1.3kbits/s speed=0.0403x    frame=  318 fps=2.7 q=36.0 size=       1kB time=00:00:04.80 bitrate=   1.2kbits/s speed=0.0406x    frame=  319 fps=2.7 q=36.0 size=       1kB time=00:00:04.82 bitrate=   1.2kbits/s speed=0.0406x    frame=  322 fps=2.7 q=37.0 size=       1kB time=00:00:04.88 bitrate=   1.2kbits/s speed=0.0409x    frame=  324 fps=2.7 q=37.0 size=       1kB time=00:00:04.92 bitrate=   1.2kbits/s speed=0.041x    frame=  325 fps=2.7 q=37.0 size=    2727kB time=00:00:04.94 bitrate=4521.3kbits/s speed=0.0409x    frame=  327 fps=2.7 q=37.0 size=    2727kB time=00:00:04.98 bitrate=4485.0kbits/s speed=0.0411x    frame=  331 fps=2.7 q=37.0 size=    2727kB time=00:00:05.06 bitrate=4414.1kbits/s speed=0.0414x    frame=  336 fps=2.7 q=37.0 size=    2727kB time=00:00:05.16 bitrate=4328.5kbits/s speed=0.0419x    frame=  337 fps=2.7 q=37.0 size=    2727kB time=00:00:05.18 bitrate=4311.8kbits/s speed=0.0418x    frame=  340 fps=2.7 q=38.0 size=    2727kB time=00:00:05.24 bitrate=4262.5kbits/s speed=0.0419x    frame=  345 fps=2.7 q=38.0 size=    2727kB time=00:00:05.34 bitrate=4182.7kbits/s speed=0.0422x    frame=  347 fps=2.7 q=38.0 size=    2727kB time=00:00:05.38 bitrate=4151.6kbits/s speed=0.0423x    frame=  349 fps=2.7 q=37.0 size=    2727kB time=00:00:05.42 bitrate=4120.9kbits/s speed=0.0423x    frame=  354 fps=2.7 q=37.0 size=    2727kB time=00:00:05.52 bitrate=4046.3kbits/s speed=0.0426x    frame=  355 fps=2.7 q=37.0 size=    2727kB time=00:00:05.54 bitrate=4031.7kbits/s speed=0.0425x    frame=  358 fps=2.7 q=37.0 size=    2727kB time=00:00:05.60 bitrate=3988.5kbits/s speed=0.0427x    frame=  362 fps=2.7 q=37.0 size=    2727kB time=00:00:05.68 bitrate=3932.3kbits/s speed=0.0431x    frame=  363 fps=2.7 q=37.0 size=    2727kB time=00:00:05.70 bitrate=3918.5kbits/s speed=0.0428x    frame=  364 fps=2.7 q=37.0 size=    2727kB time=00:00:05.72 bitrate=3904.8kbits/s speed=0.0427x    frame=  369 fps=2.7 q=37.0 size=    2727kB time=00:00:05.82 bitrate=3837.8kbits/s speed=0.0429x    frame=  373 fps=2.7 q=37.0 size=    2727kB time=00:00:05.90 bitrate=3785.7kbits/s speed=0.043x    frame=  375 fps=2.7 q=37.0 size=    2727kB time=00:00:05.94 bitrate=3760.2kbits/s speed=0.0429x    frame=  378 fps=2.7 q=37.0 size=    2727kB time=00:00:06.00 bitrate=3722.7kbits/s speed=0.043x    frame=  379 fps=2.7 q=37.0 size=    2727kB time=00:00:06.02 bitrate=3710.3kbits/s speed=0.0429x    frame=  380 fps=2.7 q=37.0 size=    2727kB time=00:00:06.04 bitrate=3698.0kbits/s speed=0.0429x    frame=  381 fps=2.7 q=37.0 size=    2727kB time=00:00:06.06 bitrate=3685.8kbits/s speed=0.0429x    frame=  382 fps=2.7 q=37.0 size=    2727kB time=00:00:06.08 bitrate=3673.7kbits/s speed=0.0428x    frame=  385 fps=2.7 q=37.0 size=    2727kB time=00:00:06.14 bitrate=3637.8kbits/s speed=0.043x    frame=  387 fps=2.7 q=37.0 size=    2727kB time=00:00:06.18 bitrate=3614.2kbits/s speed=0.043x    frame=  388 fps=2.7 q=37.0 size=    2727kB time=00:00:06.20 bitrate=3602.6kbits/s speed=0.0427x    frame=  391 fps=2.7 q=37.0 size=    2727kB time=00:00:06.26 bitrate=3568.1kbits/s speed=0.043x    frame=  392 fps=2.7 q=37.0 size=    2727kB time=00:00:06.28 bitrate=3556.7kbits/s speed=0.0429x    frame=  394 fps=2.7 q=37.0 size=    2727kB time=00:00:06.32 bitrate=3534.2kbits/s speed=0.0429x    frame=  398 fps=2.7 q=37.0 size=    2727kB time=00:00:06.40 bitrate=3490.0kbits/s speed=0.043x    frame=  399 fps=2.7 q=37.0 size=    2727kB time=00:00:06.42 bitrate=3479.2kbits/s speed=0.0428x    frame=  401 fps=2.7 q=37.0 size=    2727kB time=00:00:06.46 bitrate=3457.6kbits/s speed=0.0428x    frame=  404 fps=2.7 q=37.0 size=    2727kB time=00:00:06.52 bitrate=3425.8kbits/s speed=0.0429x    frame=  405 fps=2.6 q=37.0 size=    2727kB time=00:00:06.54 bitrate=3415.3kbits/s speed=0.0428x    frame=  407 fps=2.6 q=37.0 size=    2727kB time=00:00:06.58 bitrate=3394.6kbits/s speed=0.0427x    frame=  410 fps=2.6 q=37.0 size=    2727kB time=00:00:06.64 bitrate=3363.9kbits/s speed=0.0427x    frame=  412 fps=2.6 q=37.0 size=    2727kB time=00:00:06.68 bitrate=3343.8kbits/s speed=0.0428x    frame=  416 fps=2.6 q=37.0 size=    2727kB time=00:00:06.76 bitrate=3304.2kbits/s speed=0.0427x    frame=  417 fps=2.6 q=37.0 size=    2727kB time=00:00:06.78 bitrate=3294.4kbits/s speed=0.0427x    frame=  419 fps=2.6 q=37.0 size=    2727kB time=00:00:06.82 bitrate=3275.1kbits/s speed=0.0428x    frame=  420 fps=2.6 q=37.0 size=    2727kB time=00:00:06.84 bitrate=3265.6kbits/s speed=0.0427x    frame=  422 fps=2.6 q=37.0 size=    2727kB time=00:00:06.88 bitrate=3246.6kbits/s speed=0.0428x    frame=  424 fps=2.6 q=37.0 size=    2727kB time=00:00:06.92 bitrate=3227.8kbits/s speed=0.0428x    frame=  425 fps=2.6 q=37.0 size=    2727kB time=00:00:06.94 bitrate=3218.5kbits/s speed=0.0428x    frame=  426 fps=2.6 q=37.0 size=    2727kB time=00:00:06.96 bitrate=3209.3kbits/s speed=0.0427x    frame=  428 fps=2.6 q=37.0 size=    2727kB time=00:00:07.00 bitrate=3190.9kbits/s speed=0.0426x    frame=  431 fps=2.6 q=37.0 size=    2727kB time=00:00:07.06 bitrate=3163.8kbits/s speed=0.0428x    frame=  434 fps=2.6 q=37.0 size=    2727kB time=00:00:07.12 bitrate=3137.1kbits/s speed=0.0426x    frame=  435 fps=2.6 q=37.0 size=    2727kB time=00:00:07.14 bitrate=3128.4kbits/s speed=0.0425x    frame=  438 fps=2.6 q=37.0 size=    2727kB time=00:00:07.20 bitrate=3102.3kbits/s speed=0.0426x    frame=  440 fps=2.6 q=37.0 size=    2727kB time=00:00:07.24 bitrate=3085.2kbits/s speed=0.0425x    frame=  441 fps=2.6 q=37.0 size=    2727kB time=00:00:07.26 bitrate=3076.7kbits/s speed=0.0425x    frame=  443 fps=2.6 q=37.0 size=    2727kB time=00:00:07.30 bitrate=3059.8kbits/s speed=0.0426x    frame=  446 fps=2.6 q=37.0 size=    2727kB time=00:00:07.36 bitrate=3034.9kbits/s speed=0.0424x    frame=  448 fps=2.6 q=37.0 size=    2727kB time=00:00:07.40 bitrate=3018.5kbits/s speed=0.0425x    frame=  452 fps=2.6 q=37.0 size=    2727kB time=00:00:07.48 bitrate=2986.2kbits/s speed=0.0426x    frame=  453 fps=2.6 q=37.0 size=    2727kB time=00:00:07.50 bitrate=2978.2kbits/s speed=0.0424x    frame=  458 fps=2.6 q=37.0 size=    2727kB time=00:00:07.60 bitrate=2939.0kbits/s speed=0.0424x    frame=  460 fps=2.6 q=37.0 size=    2727kB time=00:00:07.64 bitrate=2923.7kbits/s speed=0.0424x    frame=  464 fps=2.5 q=37.0 size=    2727kB time=00:00:07.72 bitrate=2893.4kbits/s speed=0.0424x    frame=  470 fps=2.5 q=37.0 size=    2727kB time=00:00:07.84 bitrate=2849.1kbits/s speed=0.0424x    frame=  473 fps=2.5 q=37.0 size=    2727kB time=00:00:07.90 bitrate=2827.4kbits/s speed=0.0426x    frame=  474 fps=2.5 q=37.0 size=    2727kB time=00:00:07.92 bitrate=2820.3kbits/s speed=0.0426x    frame=  476 fps=2.5 q=37.0 size=    2727kB time=00:00:07.96 bitrate=2806.1kbits/s speed=0.0424x    frame=  477 fps=2.5 q=37.0 size=    2727kB time=00:00:07.98 bitrate=2799.1kbits/s speed=0.0424x    frame=  480 fps=2.5 q=37.0 size=    2727kB time=00:00:08.04 bitrate=2778.2kbits/s speed=0.0425x    frame=  481 fps=2.5 q=37.0 size=    2727kB time=00:00:08.06 bitrate=2771.3kbits/s speed=0.0425x    frame=  482 fps=2.5 q=37.0 size=    2727kB time=00:00:08.08 bitrate=2764.5kbits/s speed=0.0423x    frame=  486 fps=2.5 q=37.0 size=    2727kB time=00:00:08.16 bitrate=2737.4kbits/s speed=0.0425x    frame=  488 fps=2.5 q=37.0 size=    2727kB time=00:00:08.20 bitrate=2724.0kbits/s speed=0.0426x    frame=  489 fps=2.5 q=37.0 size=    2727kB time=00:00:08.22 bitrate=2717.4kbits/s speed=0.0423x    frame=  493 fps=2.5 q=37.0 size=    2727kB time=00:00:08.30 bitrate=2691.2kbits/s speed=0.0426x    frame=  495 fps=2.5 q=37.0 size=    2727kB time=00:00:08.34 bitrate=2678.3kbits/s speed=0.0425x    frame=  496 fps=2.5 q=37.0 size=    2727kB time=00:00:08.36 bitrate=2671.9kbits/s speed=0.0424x    frame=  500 fps=2.5 q=37.0 size=    2727kB time=00:00:08.44 bitrate=2646.6kbits/s speed=0.0427x    frame=  500 fps=2.5 q=37.0 size=    2727kB time=00:00:08.44 bitrate=2646.6kbits/s speed=0.0425x    frame=  500 fps=2.2 q=-1.0 Lsize=    6141kB time=00:00:09.94 bitrate=5060.6kbits/s speed=0.0429x    
video:6137kB audio:0kB subtitle:0kB other streams:0kB global headers:0kB muxing overhead: 0.070544%
bench: utime=871.928s
bench: maxrss=3675772kB
[libx264 @ 0x2c9d120] frame I:3     Avg QP:34.38  size:223156
[libx264 @ 0x2c9d120] frame P:63    Avg QP:36.61  size: 29784
[libx264 @ 0x2c9d120] frame B:434   Avg QP:38.92  size:  8612
[libx264 @ 0x2c9d120] consecutive B-frames:  0.8%  0.0%  0.0%  1.6%  4.0%  3.6% 11.2% 17.6% 61.2%
[libx264 @ 0x2c9d120] mb I  I16..4: 41.5% 52.2%  6.3%
[libx264 @ 0x2c9d120] mb P  I16..4:  0.0%  0.1%  0.0%  P16..4: 29.0%  2.0%  4.6%  0.0%  0.0%    skip:64.2%
[libx264 @ 0x2c9d120] mb B  I16..4:  0.0%  0.0%  0.0%  B16..8: 32.3%  0.1%  0.0%  direct: 0.0%  skip:67.6%  L0:48.7% L1:51.3% BI: 0.0%
[libx264 @ 0x2c9d120] final ratefactor: 29.36
[libx264 @ 0x2c9d120] 8x8 transform intra:52.6% inter:78.2%
[libx264 @ 0x2c9d120] direct mvs  spatial:99.1% temporal:0.9%
[libx264 @ 0x2c9d120] coded y,uvDC,uvAC intra: 58.3% 38.1% 16.8% inter: 0.6% 0.5% 0.0%
[libx264 @ 0x2c9d120] i16 v,h,dc,p:  6% 20%  5% 69%
[libx264 @ 0x2c9d120] i8 v,h,dc,ddl,ddr,vr,hd,vl,hu:  5%  6%  5% 12% 19% 13% 20%  8% 13%
[libx264 @ 0x2c9d120] i4 v,h,dc,ddl,ddr,vr,hd,vl,hu:  3%  4%  3% 14% 19% 13% 20%  9% 16%
[libx264 @ 0x2c9d120] i8c dc,h,v,p: 12% 66% 13%  9%
[libx264 @ 0x2c9d120] Weighted P-Frames: Y:3.2% UV:1.6%
[libx264 @ 0x2c9d120] ref P L0: 65.5% 22.1%  6.9%  1.3%  1.0%  0.8%  0.8%  0.2%  0.2%  0.2%  0.2%  0.2%  0.2%  0.2%  0.2%  0.1%
[libx264 @ 0x2c9d120] ref B L0: 89.7%  4.7%  3.0%  0.5%  0.5%  0.5%  0.5%  0.1%  0.1%  0.1%  0.1%  0.1%  0.1%  0.1%  0.0%
[libx264 @ 0x2c9d120] ref B L1: 97.0%  3.0%
[libx264 @ 0x2c9d120] kb/s:5026.67
